<?xml version="1.0" encoding="UTF-8" standalone="no"?><svg
 xmlns:dc="http://purl.org/dc/elements/1.1/"
 xmlns:cc="http://creativecommons.org/ns#"
 xmlns:rdf="http://www.w3.org/1999/02/22-rdf-syntax-ns#"
 xmlns:svg="http://www.w3.org/2000/svg"
 xmlns="http://www.w3.org/2000/svg"
 xmlns:sodipodi="http://sodipodi.sourceforge.net/DTD/sodipodi-0.dtd"
 xmlns:inkscape="http://www.inkscape.org/namespaces/inkscape"
 width="167.1pt"
 height="242.7pt"
 viewBox="0 0 167.1 242.7"
 xml:space="preserve"
 id="svg2"
 version="1.1"
 inkscape:version="0.5.0 r9654"
 sodipodi:docname="6_of_spades.svg"
 inkscape:export-filename="/home/byron/art/cards/final/PNGs/6_of_spades.png"
 inkscape:export-xdpi="215.4"
 inkscape:export-ydpi="215.4"><defs
 id="defs41" /><sodipodi:namedview
 pagecolor="#ffffff"
 bordercolor="#666666"
 borderopacity="1"
 objecttolerance="10"
 gridtolerance="10"
 guidetolerance="10"
 inkscape:pageopacity="0"
 inkscape:pageshadow="2"
 inkscape:window-width="1680"
 inkscape:window-height="977"
 id="namedview39"
 showgrid="false"
 inkscape:zoom="2.4"
 inkscape:cx="106"
 inkscape:cy="157.1"
 inkscape:window-x="0"
 inkscape:window-y="25"
 inkscape:window-maximized="1"
 inkscape:current-layer="svg2" /><g
 id="Layer_x0020_1"
 style="fill-rule:nonzero;clip-rule:nonzero;stroke:#000000;stroke-miterlimit:4;"><path
 style="fill:#FFFFFF;stroke-width:0.5;"
 d="M166.8,235.5c0,3.8-3.1,6.9-6.9,6.9H7.1c-3.8,0-6.9-3.1-6.9-6.9V7.1C0.2,3.3,3.3,0.2,7.1,0.2h152.9 c3.8,0,6.9,3.1,6.9,6.9v228.4z"
 id="path5" /><g
 style="stroke:none;"
 id="g7"><g
 id="g9"></g></g><g
 id="g15"></g><g
 id="g19"></g><g
 style="stroke:none;"
 id="g23"><g
 id="g25"></g></g><g
 style="stroke:none;"
 id="g31"><g
 id="g33"></g></g></g><text
 xml:space="preserve"
 style="font-size:32px;font-style:normal;font-weight:normal;line-height:125%;letter-spacing:0px;word-spacing:0px;fill:#000000;fill-opacity:1;stroke:none;font-family:Bitstream Vera Sans"
 x="8.5"
 y="28"
 id="text3788"
 sodipodi:linespacing="125%"><tspan
 sodipodi:role="line"
 id="tspan3790"
 x="8.5"
 y="28"
 style="font-style:normal;font-variant:normal;font-weight:normal;font-stretch:normal;font-family:Arial;-inkscape-font-specification:Arial">6</tspan></text><g
 transform="matrix(1.5,0,0,1.4,16.9,45.1)"
 id="layer1-7"><path
 id="sl"
 d="M 8,3.1 C 7.7,-1 0.2,-8.6 0,-10.5 c -0.2,1.9 -7.7,9.5 -8,13.6 -0.2,2.9 1.7,4.1 3.4,4.1 1.8,0 3.4,-2.8 3.9,-3.3 0.2,0.7 -1.6,6.7 -2.2,6.7 l 5.8,0 C 2.3,10.5 0.5,4.5 0.7,3.8 1.2,4.3 2.5,7.1 4.6,7.2 6.3,7.2 8.2,6 8,3.1 z"
 inkscape:connector-curvature="0"
 style="fill:#000000"
 sodipodi:nodetypes="cccccccccc" /></g><g
 transform="matrix(2.6,0,0,2.4,56.2,49.4)"
 id="layer1-7-88"><path
 id="sl-4"
 d="M 8,3.1 C 7.7,-1 0.2,-8.6 0,-10.5 c -0.2,1.9 -7.7,9.5 -8,13.6 -0.2,2.9 1.7,4.1 3.4,4.1 1.8,0 3.4,-2.8 3.9,-3.3 0.2,0.7 -1.6,6.7 -2.2,6.7 l 5.8,0 C 2.3,10.5 0.5,4.5 0.7,3.8 1.2,4.3 2.5,7.1 4.6,7.2 6.3,7.2 8.2,6 8,3.1 z"
 inkscape:connector-curvature="0"
 style="fill:#000000"
 sodipodi:nodetypes="cccccccccc" /></g><text
 xml:space="preserve"
 style="font-size:32px;font-style:normal;font-weight:normal;line-height:125%;letter-spacing:0px;word-spacing:0px;fill:#000000;fill-opacity:1;stroke:none;font-family:Bitstream Vera Sans"
 x="-159"
 y="-215.1"
 id="text3788-7"
 sodipodi:linespacing="125%"
 transform="scale(-1,-1)"><tspan
 sodipodi:role="line"
 id="tspan3790-6"
 x="-159"
 y="-215.1"
 style="font-style:normal;font-variant:normal;font-weight:normal;font-stretch:normal;font-family:Arial;-inkscape-font-specification:Arial">6</tspan></text><g
 transform="matrix(-1.5,0,0,-1.4,150.2,198)"
 id="layer1-7-3"><path
 id="sl-1"
 d="M 8,3.1 C 7.7,-1 0.2,-8.6 0,-10.5 c -0.2,1.9 -7.7,9.5 -8,13.6 -0.2,2.9 1.7,4.1 3.4,4.1 1.8,0 3.4,-2.8 3.9,-3.3 0.2,0.7 -1.6,6.7 -2.2,6.7 l 5.8,0 C 2.3,10.5 0.5,4.5 0.7,3.8 1.2,4.3 2.5,7.1 4.6,7.2 6.3,7.2 8.2,6 8,3.1 z"
 inkscape:connector-curvature="0"
 style="fill:#000000"
 sodipodi:nodetypes="cccccccccc" /></g><g
 transform="matrix(-2.6,0,0,-2.4,56.3,193.8)"
 id="layer1-7-88-7"><path
 id="sl-4-5"
 d="M 8,3.1 C 7.7,-1 0.2,-8.6 0,-10.5 c -0.2,1.9 -7.7,9.5 -8,13.6 -0.2,2.9 1.7,4.1 3.4,4.1 1.8,0 3.4,-2.8 3.9,-3.3 0.2,0.7 -1.6,6.7 -2.2,6.7 l 5.8,0 C 2.3,10.5 0.5,4.5 0.7,3.8 1.2,4.3 2.5,7.1 4.6,7.2 6.3,7.2 8.2,6 8,3.1 z"
 inkscape:connector-curvature="0"
 style="fill:#000000"
 sodipodi:nodetypes="cccccccccc" /></g><g
 transform="matrix(2.6,0,0,2.4,56.3,119.1)"
 id="layer1-7-88-6"><path
 id="sl-4-8"
 d="M 8,3.1 C 7.7,-1 0.2,-8.6 0,-10.5 c -0.2,1.9 -7.7,9.5 -8,13.6 -0.2,2.9 1.7,4.1 3.4,4.1 1.8,0 3.4,-2.8 3.9,-3.3 0.2,0.7 -1.6,6.7 -2.2,6.7 l 5.8,0 C 2.3,10.5 0.5,4.5 0.7,3.8 1.2,4.3 2.5,7.1 4.6,7.2 6.3,7.2 8.2,6 8,3.1 z"
 inkscape:connector-curvature="0"
 style="fill:#000000"
 sodipodi:nodetypes="cccccccccc" /></g><g
 transform="matrix(2.6,0,0,2.4,110.9,49.2)"
 id="layer1-7-88-68"><path
 id="sl-4-84"
 d="M 8,3.1 C 7.7,-1 0.2,-8.6 0,-10.5 c -0.2,1.9 -7.7,9.5 -8,13.6 -0.2,2.9 1.7,4.1 3.4,4.1 1.8,0 3.4,-2.8 3.9,-3.3 0.2,0.7 -1.6,6.7 -2.2,6.7 l 5.8,0 C 2.3,10.5 0.5,4.5 0.7,3.8 1.2,4.3 2.5,7.1 4.6,7.2 6.3,7.2 8.2,6 8,3.1 z"
 inkscape:connector-curvature="0"
 style="fill:#000000"
 sodipodi:nodetypes="cccccccccc" /></g><g
 transform="matrix(-2.6,0,0,-2.4,110.9,193.6)"
 id="layer1-7-88-7-3"><path
 id="sl-4-5-1"
 d="M 8,3.1 C 7.7,-1 0.2,-8.6 0,-10.5 c -0.2,1.9 -7.7,9.5 -8,13.6 -0.2,2.9 1.7,4.1 3.4,4.1 1.8,0 3.4,-2.8 3.9,-3.3 0.2,0.7 -1.6,6.7 -2.2,6.7 l 5.8,0 C 2.3,10.5 0.5,4.5 0.7,3.8 1.2,4.3 2.5,7.1 4.6,7.2 6.3,7.2 8.2,6 8,3.1 z"
 inkscape:connector-curvature="0"
 style="fill:#000000"
 sodipodi:nodetypes="cccccccccc" /></g><g
 transform="matrix(2.6,0,0,2.4,111,118.9)"
 id="layer1-7-88-6-4"><path
 id="sl-4-8-9"
 d="M 8,3.1 C 7.7,-1 0.2,-8.6 0,-10.5 c -0.2,1.9 -7.7,9.5 -8,13.6 -0.2,2.9 1.7,4.1 3.4,4.1 1.8,0 3.4,-2.8 3.9,-3.3 0.2,0.7 -1.6,6.7 -2.2,6.7 l 5.8,0 C 2.3,10.5 0.5,4.5 0.7,3.8 1.2,4.3 2.5,7.1 4.6,7.2 6.3,7.2 8.2,6 8,3.1 z"
 inkscape:connector-curvature="0"
 style="fill:#000000"
 sodipodi:nodetypes="cccccccccc" /></g></svg>